<?xml version="1.0" encoding="utf-8" ?>
<svg baseProfile="full" height="800" version="1.1" width="1200" xmlns="http://www.w3.org/2000/svg" xmlns:ev="http://www.w3.org/2001/xml-events" xmlns:xlink="http://www.w3.org/1999/xlink"><defs /><rect fill="#ffffff" height="800" width="1200" x="0" y="0" /><text fill="#172B4D" font-size="24" font-weight="bold" x="20" y="40">RT-DETR-MNV4-Hybrid-M</text><rect fill="#F4F5F7" height="100" rx="8" ry="8" stroke="#C1C7D0" width="360" x="20" y="70" /><text fill="#091E42" font-size="14" font-weight="bold" x="32" y="94">P1/2  320x320  C=32</text><text fill="#091E42" font-size="12" x="32" y="118">• Conv</text><rect fill="#F4F5F7" height="100" rx="8" ry="8" stroke="#C1C7D0" width="360" x="20" y="184" /><text fill="#091E42" font-size="14" font-weight="bold" x="32" y="208">P2/4  160x160  C=48</text><text fill="#091E42" font-size="12" x="32" y="232">• EdgeResidual</text><rect fill="#F4F5F7" height="120" rx="8" ry="8" stroke="#C1C7D0" width="360" x="20" y="298" /><text fill="#091E42" font-size="14" font-weight="bold" x="32" y="322">P3/8  80x80  C=80</text><text fill="#091E42" font-size="12" x="32" y="346">• UniversalInvertedResidual</text><text fill="#091E42" font-size="12" x="32" y="366">• UniversalInvertedResidual</text><rect fill="#F4F5F7" height="240" rx="8" ry="8" stroke="#C1C7D0" width="360" x="20" y="432" /><text fill="#091E42" font-size="14" font-weight="bold" x="32" y="456">P4/16  40x40  C=160</text><text fill="#091E42" font-size="12" x="32" y="480">• UniversalInvertedResidual</text><text fill="#091E42" font-size="12" x="32" y="500">• UniversalInvertedResidual</text><text fill="#091E42" font-size="12" x="32" y="520">• UniversalInvertedResidual</text><text fill="#091E42" font-size="12" x="32" y="540">• UniversalInvertedResidual</text><text fill="#091E42" font-size="12" x="32" y="560">• C2f</text><text fill="#091E42" font-size="12" x="32" y="580">• UniversalInvertedResidual</text><text fill="#091E42" font-size="12" x="32" y="600">• C2f</text><text fill="#091E42" font-size="12" x="32" y="620">• UniversalInvertedResidual</text><text fill="#091E42" font-size="12" opacity="0.7" x="32" y="640">… (+1 blocks)</text><rect fill="#F4F5F7" height="240" rx="8" ry="8" stroke="#C1C7D0" width="360" x="20" y="686" /><text fill="#091E42" font-size="14" font-weight="bold" x="32" y="710">P5/32  20x20  C=960</text><text fill="#091E42" font-size="12" x="32" y="734">• UniversalInvertedResidual</text><text fill="#091E42" font-size="12" x="32" y="754">• UniversalInvertedResidual</text><text fill="#091E42" font-size="12" x="32" y="774">• UniversalInvertedResidual</text><text fill="#091E42" font-size="12" x="32" y="794">• UniversalInvertedResidual</text><text fill="#091E42" font-size="12" x="32" y="814">• UniversalInvertedResidual</text><text fill="#091E42" font-size="12" x="32" y="834">• UniversalInvertedResidual</text><text fill="#091E42" font-size="12" x="32" y="854">• UniversalInvertedResidual</text><text fill="#091E42" font-size="12" x="32" y="874">• UniversalInvertedResidual</text><text fill="#091E42" font-size="12" opacity="0.7" x="32" y="894">… (+3 blocks)</text><rect fill="#FFF7E6" height="240" rx="8" ry="8" stroke="#E6C200" width="360" x="400" y="70" /><text fill="#091E42" font-size="14" font-weight="bold" x="412" y="94">Head (AIFI + FPN/PAN + Decoder)</text><text fill="#091E42" font-size="12" x="412" y="118">• P5: 20x20xC5 → Conv1x1(256) → AIFI → Conv1x1(256) = Y5(20x20x256)</text><text fill="#091E42" font-size="12" x="412" y="138">• P4: Upsample(Y5 20→40) + Stage3(40x40)投影(→256) → RepC3 → Y4(40x40x256)</text><text fill="#091E42" font-size="12" x="412" y="158">• P3: Upsample(Y4 40→80) + Stage2(80x80)投影(→256) → RepC3 → X3(80x80x256)</text><text fill="#091E42" font-size="12" x="412" y="178">• PAN: X3↓→40 + Y4 → F4；F4↓→20 + Y5 → F5</text><text fill="#091E42" font-size="12" x="412" y="198">• Decoder: RTDETRDecoder([X3, F4, F5])</text></svg>