<?xml version="1.0" encoding="utf-8" ?>
<svg baseProfile="full" height="800" version="1.1" width="1200" xmlns="http://www.w3.org/2000/svg" xmlns:ev="http://www.w3.org/2001/xml-events" xmlns:xlink="http://www.w3.org/1999/xlink"><defs /><rect fill="#ffffff" height="800" width="1200" x="0" y="0" /><text fill="#172B4D" font-size="24" font-weight="bold" x="20" y="40">RT-DETR-L</text><rect fill="#F4F5F7" height="100" rx="8" ry="8" stroke="#C1C7D0" width="360" x="20" y="70" /><text fill="#091E42" font-size="14" font-weight="bold" x="32" y="94">P1/2  13x13  C=32</text><text fill="#091E42" font-size="12" x="32" y="118">• HGStem</text><rect fill="#F4F5F7" height="100" rx="8" ry="8" stroke="#C1C7D0" width="360" x="20" y="184" /><text fill="#091E42" font-size="14" font-weight="bold" x="32" y="208">P2/4  0x0  C=48</text><text fill="#091E42" font-size="12" x="32" y="232">• HGBlock</text><rect fill="#F4F5F7" height="100" rx="8" ry="8" stroke="#C1C7D0" width="360" x="20" y="298" /><text fill="#091E42" font-size="14" font-weight="bold" x="32" y="322">P3/8  0x0  C=48</text><text fill="#091E42" font-size="12" x="32" y="346">• HGBlock</text><rect fill="#F4F5F7" height="100" rx="8" ry="8" stroke="#C1C7D0" width="360" x="20" y="412" /><text fill="#091E42" font-size="14" font-weight="bold" x="32" y="436">P4/16  0x0  C=48</text><text fill="#091E42" font-size="12" x="32" y="460">• HGBlock</text><rect fill="#F4F5F7" height="100" rx="8" ry="8" stroke="#C1C7D0" width="360" x="20" y="526" /><text fill="#091E42" font-size="14" font-weight="bold" x="32" y="550">P5/32  0x0  C=48</text><text fill="#091E42" font-size="12" x="32" y="574">• HGBlock</text><rect fill="#F4F5F7" height="100" rx="8" ry="8" stroke="#C1C7D0" width="360" x="20" y="640" /><text fill="#091E42" font-size="14" font-weight="bold" x="32" y="664">P?/64  0x0  C=48</text><text fill="#091E42" font-size="12" x="32" y="688">• HGBlock</text><rect fill="#F4F5F7" height="100" rx="8" ry="8" stroke="#C1C7D0" width="360" x="20" y="754" /><text fill="#091E42" font-size="14" font-weight="bold" x="32" y="778">P?/128  0x0  C=48</text><text fill="#091E42" font-size="12" x="32" y="802">• HGBlock</text><rect fill="#F4F5F7" height="100" rx="8" ry="8" stroke="#C1C7D0" width="360" x="20" y="868" /><text fill="#091E42" font-size="14" font-weight="bold" x="32" y="892">P?/256  0x0  C=128</text><text fill="#091E42" font-size="12" x="32" y="916">• DWConv</text><rect fill="#F4F5F7" height="100" rx="8" ry="8" stroke="#C1C7D0" width="360" x="20" y="982" /><text fill="#091E42" font-size="14" font-weight="bold" x="32" y="1006">P?/512  0x0  C=96</text><text fill="#091E42" font-size="12" x="32" y="1030">• HGBlock</text><rect fill="#F4F5F7" height="100" rx="8" ry="8" stroke="#C1C7D0" width="360" x="20" y="1096" /><text fill="#091E42" font-size="14" font-weight="bold" x="32" y="1120">P?/1024  0x0  C=96</text><text fill="#091E42" font-size="12" x="32" y="1144">• HGBlock</text><rect fill="#F4F5F7" height="100" rx="8" ry="8" stroke="#C1C7D0" width="360" x="20" y="1210" /><text fill="#091E42" font-size="14" font-weight="bold" x="32" y="1234">P?/2048  0x0  C=96</text><text fill="#091E42" font-size="12" x="32" y="1258">• HGBlock</text><rect fill="#F4F5F7" height="100" rx="8" ry="8" stroke="#C1C7D0" width="360" x="20" y="1324" /><text fill="#091E42" font-size="14" font-weight="bold" x="32" y="1348">P?/4096  0x0  C=96</text><text fill="#091E42" font-size="12" x="32" y="1372">• HGBlock</text><rect fill="#F4F5F7" height="100" rx="8" ry="8" stroke="#C1C7D0" width="360" x="20" y="1438" /><text fill="#091E42" font-size="14" font-weight="bold" x="32" y="1462">P?/8192  0x0  C=96</text><text fill="#091E42" font-size="12" x="32" y="1486">• HGBlock</text><rect fill="#F4F5F7" height="100" rx="8" ry="8" stroke="#C1C7D0" width="360" x="20" y="1552" /><text fill="#091E42" font-size="14" font-weight="bold" x="32" y="1576">P?/16384  0x0  C=96</text><text fill="#091E42" font-size="12" x="32" y="1600">• HGBlock</text><rect fill="#F4F5F7" height="100" rx="8" ry="8" stroke="#C1C7D0" width="360" x="20" y="1666" /><text fill="#091E42" font-size="14" font-weight="bold" x="32" y="1690">P?/32768  0x0  C=512</text><text fill="#091E42" font-size="12" x="32" y="1714">• DWConv</text><rect fill="#F4F5F7" height="100" rx="8" ry="8" stroke="#C1C7D0" width="360" x="20" y="1780" /><text fill="#091E42" font-size="14" font-weight="bold" x="32" y="1804">P?/65536  0x0  C=192</text><text fill="#091E42" font-size="12" x="32" y="1828">• HGBlock</text><rect fill="#F4F5F7" height="100" rx="8" ry="8" stroke="#C1C7D0" width="360" x="20" y="1894" /><text fill="#091E42" font-size="14" font-weight="bold" x="32" y="1918">P?/131072  0x0  C=192</text><text fill="#091E42" font-size="12" x="32" y="1942">• HGBlock</text><rect fill="#F4F5F7" height="100" rx="8" ry="8" stroke="#C1C7D0" width="360" x="20" y="2008" /><text fill="#091E42" font-size="14" font-weight="bold" x="32" y="2032">P?/262144  0x0  C=192</text><text fill="#091E42" font-size="12" x="32" y="2056">• HGBlock</text><rect fill="#F4F5F7" height="100" rx="8" ry="8" stroke="#C1C7D0" width="360" x="20" y="2122" /><text fill="#091E42" font-size="14" font-weight="bold" x="32" y="2146">P?/524288  0x0  C=192</text><text fill="#091E42" font-size="12" x="32" y="2170">• HGBlock</text><rect fill="#F4F5F7" height="100" rx="8" ry="8" stroke="#C1C7D0" width="360" x="20" y="2236" /><text fill="#091E42" font-size="14" font-weight="bold" x="32" y="2260">P?/1048576  0x0  C=192</text><text fill="#091E42" font-size="12" x="32" y="2284">• HGBlock</text><rect fill="#F4F5F7" height="100" rx="8" ry="8" stroke="#C1C7D0" width="360" x="20" y="2350" /><text fill="#091E42" font-size="14" font-weight="bold" x="32" y="2374">P?/2097152  0x0  C=192</text><text fill="#091E42" font-size="12" x="32" y="2398">• HGBlock</text><rect fill="#F4F5F7" height="100" rx="8" ry="8" stroke="#C1C7D0" width="360" x="20" y="2464" /><text fill="#091E42" font-size="14" font-weight="bold" x="32" y="2488">P?/4194304  0x0  C=192</text><text fill="#091E42" font-size="12" x="32" y="2512">• HGBlock</text><rect fill="#F4F5F7" height="100" rx="8" ry="8" stroke="#C1C7D0" width="360" x="20" y="2578" /><text fill="#091E42" font-size="14" font-weight="bold" x="32" y="2602">P?/8388608  0x0  C=192</text><text fill="#091E42" font-size="12" x="32" y="2626">• HGBlock</text><rect fill="#F4F5F7" height="100" rx="8" ry="8" stroke="#C1C7D0" width="360" x="20" y="2692" /><text fill="#091E42" font-size="14" font-weight="bold" x="32" y="2716">P?/16777216  0x0  C=192</text><text fill="#091E42" font-size="12" x="32" y="2740">• HGBlock</text><rect fill="#F4F5F7" height="100" rx="8" ry="8" stroke="#C1C7D0" width="360" x="20" y="2806" /><text fill="#091E42" font-size="14" font-weight="bold" x="32" y="2830">P?/33554432  0x0  C=192</text><text fill="#091E42" font-size="12" x="32" y="2854">• HGBlock</text><rect fill="#F4F5F7" height="100" rx="8" ry="8" stroke="#C1C7D0" width="360" x="20" y="2920" /><text fill="#091E42" font-size="14" font-weight="bold" x="32" y="2944">P?/67108864  0x0  C=192</text><text fill="#091E42" font-size="12" x="32" y="2968">• HGBlock</text><rect fill="#F4F5F7" height="100" rx="8" ry="8" stroke="#C1C7D0" width="360" x="20" y="3034" /><text fill="#091E42" font-size="14" font-weight="bold" x="32" y="3058">P?/134217728  0x0  C=192</text><text fill="#091E42" font-size="12" x="32" y="3082">• HGBlock</text><rect fill="#F4F5F7" height="100" rx="8" ry="8" stroke="#C1C7D0" width="360" x="20" y="3148" /><text fill="#091E42" font-size="14" font-weight="bold" x="32" y="3172">P?/268435456  0x0  C=192</text><text fill="#091E42" font-size="12" x="32" y="3196">• HGBlock</text><rect fill="#F4F5F7" height="100" rx="8" ry="8" stroke="#C1C7D0" width="360" x="20" y="3262" /><text fill="#091E42" font-size="14" font-weight="bold" x="32" y="3286">P?/536870912  0x0  C=192</text><text fill="#091E42" font-size="12" x="32" y="3310">• HGBlock</text><rect fill="#F4F5F7" height="100" rx="8" ry="8" stroke="#C1C7D0" width="360" x="20" y="3376" /><text fill="#091E42" font-size="14" font-weight="bold" x="32" y="3400">P?/1073741824  0x0  C=192</text><text fill="#091E42" font-size="12" x="32" y="3424">• HGBlock</text><rect fill="#F4F5F7" height="100" rx="8" ry="8" stroke="#C1C7D0" width="360" x="20" y="3490" /><text fill="#091E42" font-size="14" font-weight="bold" x="32" y="3514">P?/2147483648  0x0  C=192</text><text fill="#091E42" font-size="12" x="32" y="3538">• HGBlock</text><rect fill="#F4F5F7" height="100" rx="8" ry="8" stroke="#C1C7D0" width="360" x="20" y="3604" /><text fill="#091E42" font-size="14" font-weight="bold" x="32" y="3628">P?/4294967296  0x0  C=192</text><text fill="#091E42" font-size="12" x="32" y="3652">• HGBlock</text><rect fill="#F4F5F7" height="100" rx="8" ry="8" stroke="#C1C7D0" width="360" x="20" y="3718" /><text fill="#091E42" font-size="14" font-weight="bold" x="32" y="3742">P?/8589934592  0x0  C=192</text><text fill="#091E42" font-size="12" x="32" y="3766">• HGBlock</text><rect fill="#F4F5F7" height="100" rx="8" ry="8" stroke="#C1C7D0" width="360" x="20" y="3832" /><text fill="#091E42" font-size="14" font-weight="bold" x="32" y="3856">P?/17179869184  0x0  C=1024</text><text fill="#091E42" font-size="12" x="32" y="3880">• DWConv</text><rect fill="#F4F5F7" height="100" rx="8" ry="8" stroke="#C1C7D0" width="360" x="20" y="3946" /><text fill="#091E42" font-size="14" font-weight="bold" x="32" y="3970">P?/34359738368  0x0  C=384</text><text fill="#091E42" font-size="12" x="32" y="3994">• HGBlock</text><rect fill="#F4F5F7" height="100" rx="8" ry="8" stroke="#C1C7D0" width="360" x="20" y="4060" /><text fill="#091E42" font-size="14" font-weight="bold" x="32" y="4084">P?/68719476736  0x0  C=384</text><text fill="#091E42" font-size="12" x="32" y="4108">• HGBlock</text><rect fill="#F4F5F7" height="100" rx="8" ry="8" stroke="#C1C7D0" width="360" x="20" y="4174" /><text fill="#091E42" font-size="14" font-weight="bold" x="32" y="4198">P?/137438953472  0x0  C=384</text><text fill="#091E42" font-size="12" x="32" y="4222">• HGBlock</text><rect fill="#F4F5F7" height="100" rx="8" ry="8" stroke="#C1C7D0" width="360" x="20" y="4288" /><text fill="#091E42" font-size="14" font-weight="bold" x="32" y="4312">P?/274877906944  0x0  C=384</text><text fill="#091E42" font-size="12" x="32" y="4336">• HGBlock</text><rect fill="#F4F5F7" height="100" rx="8" ry="8" stroke="#C1C7D0" width="360" x="20" y="4402" /><text fill="#091E42" font-size="14" font-weight="bold" x="32" y="4426">P?/549755813888  0x0  C=384</text><text fill="#091E42" font-size="12" x="32" y="4450">• HGBlock</text><rect fill="#F4F5F7" height="100" rx="8" ry="8" stroke="#C1C7D0" width="360" x="20" y="4516" /><text fill="#091E42" font-size="14" font-weight="bold" x="32" y="4540">P?/1099511627776  0x0  C=384</text><text fill="#091E42" font-size="12" x="32" y="4564">• HGBlock</text><rect fill="#FFF7E6" height="240" rx="8" ry="8" stroke="#E6C200" width="360" x="400" y="70" /><text fill="#091E42" font-size="14" font-weight="bold" x="412" y="94">Head (AIFI + FPN/PAN + Decoder)</text><text fill="#091E42" font-size="12" x="412" y="118">• P5: 20x20xC5 → Conv1x1(256) → AIFI → Conv1x1(256) = Y5(20x20x256)</text><text fill="#091E42" font-size="12" x="412" y="138">• P4: Upsample(Y5 20→40) + Stage3(40x40)投影(→256) → RepC3 → Y4(40x40x256)</text><text fill="#091E42" font-size="12" x="412" y="158">• P3: Upsample(Y4 40→80) + Stage2(80x80)投影(→256) → RepC3 → X3(80x80x256)</text><text fill="#091E42" font-size="12" x="412" y="178">• PAN: X3↓→40 + Y4 → F4；F4↓→20 + Y5 → F5</text><text fill="#091E42" font-size="12" x="412" y="198">• Decoder: RTDETRDecoder([X3, F4, F5])</text></svg>