<?xml version="1.0" encoding="utf-8" ?>
<svg baseProfile="full" height="900" version="1.1" width="1500" xmlns="http://www.w3.org/2000/svg" xmlns:ev="http://www.w3.org/2001/xml-events" xmlns:xlink="http://www.w3.org/1999/xlink"><defs /><rect fill="#ffffff" height="900" width="1500" x="0" y="0" /><text fill="#172B4D" font-size="24" font-weight="bold" x="20" y="40">RT-DETR 主干对比：L vs MNV4 vs MNV4+SEA（蓝色=含SEA）</text><text fill="#172B4D" font-size="18" font-weight="bold" x="34.0" y="80">RT-DETR-L</text><rect fill="#F4F5F7" height="88" rx="8" ry="8" stroke="#C1C7D0" width="464.0" x="34.0" y="104" /><text fill="#091E42" font-size="13" font-weight="bold" x="44.0" y="126">P1/2  13x13  C=32</text><text fill="#091E42" font-size="12" x="44.0" y="148">• HGStem</text><rect fill="#F4F5F7" height="88" rx="8" ry="8" stroke="#C1C7D0" width="464.0" x="34.0" y="204" /><text fill="#091E42" font-size="13" font-weight="bold" x="44.0" y="226">P2/4  0x0  C=48</text><text fill="#091E42" font-size="12" x="44.0" y="248">• HGBlock</text><rect fill="#F4F5F7" height="88" rx="8" ry="8" stroke="#C1C7D0" width="464.0" x="34.0" y="304" /><text fill="#091E42" font-size="13" font-weight="bold" x="44.0" y="326">P3/8  0x0  C=48</text><text fill="#091E42" font-size="12" x="44.0" y="348">• HGBlock</text><rect fill="#F4F5F7" height="88" rx="8" ry="8" stroke="#C1C7D0" width="464.0" x="34.0" y="404" /><text fill="#091E42" font-size="13" font-weight="bold" x="44.0" y="426">P4/16  0x0  C=48</text><text fill="#091E42" font-size="12" x="44.0" y="448">• HGBlock</text><rect fill="#F4F5F7" height="88" rx="8" ry="8" stroke="#C1C7D0" width="464.0" x="34.0" y="504" /><text fill="#091E42" font-size="13" font-weight="bold" x="44.0" y="526">P5/32  0x0  C=48</text><text fill="#091E42" font-size="12" x="44.0" y="548">• HGBlock</text><rect fill="#F4F5F7" height="88" rx="8" ry="8" stroke="#C1C7D0" width="464.0" x="34.0" y="604" /><text fill="#091E42" font-size="13" font-weight="bold" x="44.0" y="626">P?/64  0x0  C=48</text><text fill="#091E42" font-size="12" x="44.0" y="648">• HGBlock</text><rect fill="#F4F5F7" height="88" rx="8" ry="8" stroke="#C1C7D0" width="464.0" x="34.0" y="704" /><text fill="#091E42" font-size="13" font-weight="bold" x="44.0" y="726">P?/128  0x0  C=48</text><text fill="#091E42" font-size="12" x="44.0" y="748">• HGBlock</text><rect fill="#F4F5F7" height="88" rx="8" ry="8" stroke="#C1C7D0" width="464.0" x="34.0" y="804" /><text fill="#091E42" font-size="13" font-weight="bold" x="44.0" y="826">P?/256  0x0  C=128</text><text fill="#091E42" font-size="12" x="44.0" y="848">• DWConv</text><rect fill="#F4F5F7" height="88" rx="8" ry="8" stroke="#C1C7D0" width="464.0" x="34.0" y="904" /><text fill="#091E42" font-size="13" font-weight="bold" x="44.0" y="926">P?/512  0x0  C=96</text><text fill="#091E42" font-size="12" x="44.0" y="948">• HGBlock</text><rect fill="#F4F5F7" height="88" rx="8" ry="8" stroke="#C1C7D0" width="464.0" x="34.0" y="1004" /><text fill="#091E42" font-size="13" font-weight="bold" x="44.0" y="1026">P?/1024  0x0  C=96</text><text fill="#091E42" font-size="12" x="44.0" y="1048">• HGBlock</text><rect fill="#F4F5F7" height="88" rx="8" ry="8" stroke="#C1C7D0" width="464.0" x="34.0" y="1104" /><text fill="#091E42" font-size="13" font-weight="bold" x="44.0" y="1126">P?/2048  0x0  C=96</text><text fill="#091E42" font-size="12" x="44.0" y="1148">• HGBlock</text><rect fill="#F4F5F7" height="88" rx="8" ry="8" stroke="#C1C7D0" width="464.0" x="34.0" y="1204" /><text fill="#091E42" font-size="13" font-weight="bold" x="44.0" y="1226">P?/4096  0x0  C=96</text><text fill="#091E42" font-size="12" x="44.0" y="1248">• HGBlock</text><rect fill="#F4F5F7" height="88" rx="8" ry="8" stroke="#C1C7D0" width="464.0" x="34.0" y="1304" /><text fill="#091E42" font-size="13" font-weight="bold" x="44.0" y="1326">P?/8192  0x0  C=96</text><text fill="#091E42" font-size="12" x="44.0" y="1348">• HGBlock</text><rect fill="#F4F5F7" height="88" rx="8" ry="8" stroke="#C1C7D0" width="464.0" x="34.0" y="1404" /><text fill="#091E42" font-size="13" font-weight="bold" x="44.0" y="1426">P?/16384  0x0  C=96</text><text fill="#091E42" font-size="12" x="44.0" y="1448">• HGBlock</text><rect fill="#F4F5F7" height="88" rx="8" ry="8" stroke="#C1C7D0" width="464.0" x="34.0" y="1504" /><text fill="#091E42" font-size="13" font-weight="bold" x="44.0" y="1526">P?/32768  0x0  C=512</text><text fill="#091E42" font-size="12" x="44.0" y="1548">• DWConv</text><rect fill="#F4F5F7" height="88" rx="8" ry="8" stroke="#C1C7D0" width="464.0" x="34.0" y="1604" /><text fill="#091E42" font-size="13" font-weight="bold" x="44.0" y="1626">P?/65536  0x0  C=192</text><text fill="#091E42" font-size="12" x="44.0" y="1648">• HGBlock</text><rect fill="#F4F5F7" height="88" rx="8" ry="8" stroke="#C1C7D0" width="464.0" x="34.0" y="1704" /><text fill="#091E42" font-size="13" font-weight="bold" x="44.0" y="1726">P?/131072  0x0  C=192</text><text fill="#091E42" font-size="12" x="44.0" y="1748">• HGBlock</text><rect fill="#F4F5F7" height="88" rx="8" ry="8" stroke="#C1C7D0" width="464.0" x="34.0" y="1804" /><text fill="#091E42" font-size="13" font-weight="bold" x="44.0" y="1826">P?/262144  0x0  C=192</text><text fill="#091E42" font-size="12" x="44.0" y="1848">• HGBlock</text><rect fill="#F4F5F7" height="88" rx="8" ry="8" stroke="#C1C7D0" width="464.0" x="34.0" y="1904" /><text fill="#091E42" font-size="13" font-weight="bold" x="44.0" y="1926">P?/524288  0x0  C=192</text><text fill="#091E42" font-size="12" x="44.0" y="1948">• HGBlock</text><rect fill="#F4F5F7" height="88" rx="8" ry="8" stroke="#C1C7D0" width="464.0" x="34.0" y="2004" /><text fill="#091E42" font-size="13" font-weight="bold" x="44.0" y="2026">P?/1048576  0x0  C=192</text><text fill="#091E42" font-size="12" x="44.0" y="2048">• HGBlock</text><rect fill="#F4F5F7" height="88" rx="8" ry="8" stroke="#C1C7D0" width="464.0" x="34.0" y="2104" /><text fill="#091E42" font-size="13" font-weight="bold" x="44.0" y="2126">P?/2097152  0x0  C=192</text><text fill="#091E42" font-size="12" x="44.0" y="2148">• HGBlock</text><rect fill="#F4F5F7" height="88" rx="8" ry="8" stroke="#C1C7D0" width="464.0" x="34.0" y="2204" /><text fill="#091E42" font-size="13" font-weight="bold" x="44.0" y="2226">P?/4194304  0x0  C=192</text><text fill="#091E42" font-size="12" x="44.0" y="2248">• HGBlock</text><rect fill="#F4F5F7" height="88" rx="8" ry="8" stroke="#C1C7D0" width="464.0" x="34.0" y="2304" /><text fill="#091E42" font-size="13" font-weight="bold" x="44.0" y="2326">P?/8388608  0x0  C=192</text><text fill="#091E42" font-size="12" x="44.0" y="2348">• HGBlock</text><rect fill="#F4F5F7" height="88" rx="8" ry="8" stroke="#C1C7D0" width="464.0" x="34.0" y="2404" /><text fill="#091E42" font-size="13" font-weight="bold" x="44.0" y="2426">P?/16777216  0x0  C=192</text><text fill="#091E42" font-size="12" x="44.0" y="2448">• HGBlock</text><rect fill="#F4F5F7" height="88" rx="8" ry="8" stroke="#C1C7D0" width="464.0" x="34.0" y="2504" /><text fill="#091E42" font-size="13" font-weight="bold" x="44.0" y="2526">P?/33554432  0x0  C=192</text><text fill="#091E42" font-size="12" x="44.0" y="2548">• HGBlock</text><rect fill="#F4F5F7" height="88" rx="8" ry="8" stroke="#C1C7D0" width="464.0" x="34.0" y="2604" /><text fill="#091E42" font-size="13" font-weight="bold" x="44.0" y="2626">P?/67108864  0x0  C=192</text><text fill="#091E42" font-size="12" x="44.0" y="2648">• HGBlock</text><rect fill="#F4F5F7" height="88" rx="8" ry="8" stroke="#C1C7D0" width="464.0" x="34.0" y="2704" /><text fill="#091E42" font-size="13" font-weight="bold" x="44.0" y="2726">P?/134217728  0x0  C=192</text><text fill="#091E42" font-size="12" x="44.0" y="2748">• HGBlock</text><rect fill="#F4F5F7" height="88" rx="8" ry="8" stroke="#C1C7D0" width="464.0" x="34.0" y="2804" /><text fill="#091E42" font-size="13" font-weight="bold" x="44.0" y="2826">P?/268435456  0x0  C=192</text><text fill="#091E42" font-size="12" x="44.0" y="2848">• HGBlock</text><rect fill="#F4F5F7" height="88" rx="8" ry="8" stroke="#C1C7D0" width="464.0" x="34.0" y="2904" /><text fill="#091E42" font-size="13" font-weight="bold" x="44.0" y="2926">P?/536870912  0x0  C=192</text><text fill="#091E42" font-size="12" x="44.0" y="2948">• HGBlock</text><rect fill="#F4F5F7" height="88" rx="8" ry="8" stroke="#C1C7D0" width="464.0" x="34.0" y="3004" /><text fill="#091E42" font-size="13" font-weight="bold" x="44.0" y="3026">P?/1073741824  0x0  C=192</text><text fill="#091E42" font-size="12" x="44.0" y="3048">• HGBlock</text><rect fill="#F4F5F7" height="88" rx="8" ry="8" stroke="#C1C7D0" width="464.0" x="34.0" y="3104" /><text fill="#091E42" font-size="13" font-weight="bold" x="44.0" y="3126">P?/2147483648  0x0  C=192</text><text fill="#091E42" font-size="12" x="44.0" y="3148">• HGBlock</text><rect fill="#F4F5F7" height="88" rx="8" ry="8" stroke="#C1C7D0" width="464.0" x="34.0" y="3204" /><text fill="#091E42" font-size="13" font-weight="bold" x="44.0" y="3226">P?/4294967296  0x0  C=192</text><text fill="#091E42" font-size="12" x="44.0" y="3248">• HGBlock</text><rect fill="#F4F5F7" height="88" rx="8" ry="8" stroke="#C1C7D0" width="464.0" x="34.0" y="3304" /><text fill="#091E42" font-size="13" font-weight="bold" x="44.0" y="3326">P?/8589934592  0x0  C=192</text><text fill="#091E42" font-size="12" x="44.0" y="3348">• HGBlock</text><rect fill="#F4F5F7" height="88" rx="8" ry="8" stroke="#C1C7D0" width="464.0" x="34.0" y="3404" /><text fill="#091E42" font-size="13" font-weight="bold" x="44.0" y="3426">P?/17179869184  0x0  C=1024</text><text fill="#091E42" font-size="12" x="44.0" y="3448">• DWConv</text><rect fill="#F4F5F7" height="88" rx="8" ry="8" stroke="#C1C7D0" width="464.0" x="34.0" y="3504" /><text fill="#091E42" font-size="13" font-weight="bold" x="44.0" y="3526">P?/34359738368  0x0  C=384</text><text fill="#091E42" font-size="12" x="44.0" y="3548">• HGBlock</text><rect fill="#F4F5F7" height="88" rx="8" ry="8" stroke="#C1C7D0" width="464.0" x="34.0" y="3604" /><text fill="#091E42" font-size="13" font-weight="bold" x="44.0" y="3626">P?/68719476736  0x0  C=384</text><text fill="#091E42" font-size="12" x="44.0" y="3648">• HGBlock</text><rect fill="#F4F5F7" height="88" rx="8" ry="8" stroke="#C1C7D0" width="464.0" x="34.0" y="3704" /><text fill="#091E42" font-size="13" font-weight="bold" x="44.0" y="3726">P?/137438953472  0x0  C=384</text><text fill="#091E42" font-size="12" x="44.0" y="3748">• HGBlock</text><rect fill="#F4F5F7" height="88" rx="8" ry="8" stroke="#C1C7D0" width="464.0" x="34.0" y="3804" /><text fill="#091E42" font-size="13" font-weight="bold" x="44.0" y="3826">P?/274877906944  0x0  C=384</text><text fill="#091E42" font-size="12" x="44.0" y="3848">• HGBlock</text><rect fill="#F4F5F7" height="88" rx="8" ry="8" stroke="#C1C7D0" width="464.0" x="34.0" y="3904" /><text fill="#091E42" font-size="13" font-weight="bold" x="44.0" y="3926">P?/549755813888  0x0  C=384</text><text fill="#091E42" font-size="12" x="44.0" y="3948">• HGBlock</text><rect fill="#F4F5F7" height="88" rx="8" ry="8" stroke="#C1C7D0" width="464.0" x="34.0" y="4004" /><text fill="#091E42" font-size="13" font-weight="bold" x="44.0" y="4026">P?/1099511627776  0x0  C=384</text><text fill="#091E42" font-size="12" x="44.0" y="4048">• HGBlock</text><line stroke="#C1C7D0" stroke-width="1" x1="508.0" x2="508.0" y1="70" y2="860" /><text fill="#172B4D" font-size="18" font-weight="bold" x="518.0" y="80">MNV4-Hybrid-M</text><rect fill="#F4F5F7" height="88" rx="8" ry="8" stroke="#C1C7D0" width="464.0" x="518.0" y="104" /><text fill="#091E42" font-size="13" font-weight="bold" x="528.0" y="126">P1/2  320x320  C=32</text><text fill="#091E42" font-size="12" x="528.0" y="148">• Conv</text><rect fill="#F4F5F7" height="88" rx="8" ry="8" stroke="#C1C7D0" width="464.0" x="518.0" y="204" /><text fill="#091E42" font-size="13" font-weight="bold" x="528.0" y="226">P2/4  160x160  C=48</text><text fill="#091E42" font-size="12" x="528.0" y="248">• EdgeResidual</text><rect fill="#F4F5F7" height="106" rx="8" ry="8" stroke="#C1C7D0" width="464.0" x="518.0" y="304" /><text fill="#091E42" font-size="13" font-weight="bold" x="528.0" y="326">P3/8  80x80  C=80</text><text fill="#091E42" font-size="12" x="528.0" y="348">• UniversalInvertedResidual</text><text fill="#091E42" font-size="12" x="528.0" y="366">• UniversalInvertedResidual</text><rect fill="#F4F5F7" height="196" rx="8" ry="8" stroke="#C1C7D0" width="464.0" x="518.0" y="422" /><text fill="#091E42" font-size="13" font-weight="bold" x="528.0" y="444">P4/16  40x40  C=160</text><text fill="#091E42" font-size="12" x="528.0" y="466">• UniversalInvertedResidual</text><text fill="#091E42" font-size="12" x="528.0" y="484">• UniversalInvertedResidual</text><text fill="#091E42" font-size="12" x="528.0" y="502">• UniversalInvertedResidual</text><text fill="#091E42" font-size="12" x="528.0" y="520">• UniversalInvertedResidual</text><text fill="#091E42" font-size="12" x="528.0" y="538">• C2f</text><text fill="#091E42" font-size="12" x="528.0" y="556">• UniversalInvertedResidual</text><text fill="#091E42" font-size="12" x="528.0" y="574">• C2f</text><text fill="#091E42" font-size="12" opacity="0.7" x="528.0" y="592">… (+2)</text><rect fill="#F4F5F7" height="196" rx="8" ry="8" stroke="#C1C7D0" width="464.0" x="518.0" y="630" /><text fill="#091E42" font-size="13" font-weight="bold" x="528.0" y="652">P5/32  20x20  C=960</text><text fill="#091E42" font-size="12" x="528.0" y="674">• UniversalInvertedResidual</text><text fill="#091E42" font-size="12" x="528.0" y="692">• UniversalInvertedResidual</text><text fill="#091E42" font-size="12" x="528.0" y="710">• UniversalInvertedResidual</text><text fill="#091E42" font-size="12" x="528.0" y="728">• UniversalInvertedResidual</text><text fill="#091E42" font-size="12" x="528.0" y="746">• UniversalInvertedResidual</text><text fill="#091E42" font-size="12" x="528.0" y="764">• UniversalInvertedResidual</text><text fill="#091E42" font-size="12" x="528.0" y="782">• UniversalInvertedResidual</text><text fill="#091E42" font-size="12" opacity="0.7" x="528.0" y="800">… (+4)</text><line stroke="#C1C7D0" stroke-width="1" x1="992.0" x2="992.0" y1="70" y2="860" /><text fill="#172B4D" font-size="18" font-weight="bold" x="1002.0" y="80">MNV4-Hybrid-M-SEA</text><rect fill="#F4F5F7" height="88" rx="8" ry="8" stroke="#C1C7D0" width="464.0" x="1002.0" y="104" /><text fill="#091E42" font-size="13" font-weight="bold" x="1012.0" y="126">P1/2  320x320  C=32</text><text fill="#091E42" font-size="12" x="1012.0" y="148">• Conv</text><rect fill="#F4F5F7" height="88" rx="8" ry="8" stroke="#C1C7D0" width="464.0" x="1002.0" y="204" /><text fill="#091E42" font-size="13" font-weight="bold" x="1012.0" y="226">P2/4  160x160  C=48</text><text fill="#091E42" font-size="12" x="1012.0" y="248">• EdgeResidual</text><rect fill="#E6F0FF" height="124" rx="8" ry="8" stroke="#C1C7D0" width="464.0" x="1002.0" y="304" /><text fill="#091E42" font-size="13" font-weight="bold" x="1012.0" y="326">P3/8  80x80  C=80</text><text fill="#091E42" font-size="12" x="1012.0" y="348">• UniversalInvertedResidual</text><text fill="#091E42" font-size="12" x="1012.0" y="366">• UniversalInvertedResidual</text><text fill="#4C9AFF" font-size="12" x="1012.0" y="384">• Sea_Attention_Simplified [SEA]</text><rect fill="#E6F0FF" height="196" rx="8" ry="8" stroke="#C1C7D0" width="464.0" x="1002.0" y="440" /><text fill="#091E42" font-size="13" font-weight="bold" x="1012.0" y="462">P4/16  40x40  C=160</text><text fill="#091E42" font-size="12" x="1012.0" y="484">• UniversalInvertedResidual</text><text fill="#091E42" font-size="12" x="1012.0" y="502">• UniversalInvertedResidual</text><text fill="#091E42" font-size="12" x="1012.0" y="520">• UniversalInvertedResidual</text><text fill="#4C9AFF" font-size="12" x="1012.0" y="538">• OptimizedSEA_Attention [SEA]</text><text fill="#091E42" font-size="12" x="1012.0" y="556">• UniversalInvertedResidual</text><text fill="#091E42" font-size="12" x="1012.0" y="574">• C2f</text><text fill="#091E42" font-size="12" x="1012.0" y="592">• UniversalInvertedResidual</text><text fill="#091E42" font-size="12" opacity="0.7" x="1012.0" y="610">… (+4)</text><rect fill="#E6F0FF" height="196" rx="8" ry="8" stroke="#C1C7D0" width="464.0" x="1002.0" y="648" /><text fill="#091E42" font-size="13" font-weight="bold" x="1012.0" y="670">P5/32  20x20  C=960</text><text fill="#091E42" font-size="12" x="1012.0" y="692">• UniversalInvertedResidual</text><text fill="#091E42" font-size="12" x="1012.0" y="710">• UniversalInvertedResidual</text><text fill="#4C9AFF" font-size="12" x="1012.0" y="728">• TransformerEnhancedSEA [SEA]</text><text fill="#091E42" font-size="12" x="1012.0" y="746">• UniversalInvertedResidual</text><text fill="#091E42" font-size="12" x="1012.0" y="764">• UniversalInvertedResidual</text><text fill="#091E42" font-size="12" x="1012.0" y="782">• UniversalInvertedResidual</text><text fill="#091E42" font-size="12" x="1012.0" y="800">• UniversalInvertedResidual</text><text fill="#091E42" font-size="12" opacity="0.7" x="1012.0" y="818">… (+6)</text><text fill="#6554C0" font-size="14" x="20" y="876">Head 保持一致：AIFI + FPN/PAN + RTDETRDecoder（对比重点在主干替换与注意力插入）</text></svg>